<svg xmlns="http://www.w3.org/2000/svg" viewBox="0 0 512 512">
  <!-- Background -->
  <rect width="512" height="512" rx="112" fill="#0A0A0B"/>
  <!-- Orange accent square -->
  <rect x="40" y="40" width="432" height="432" rx="80" fill="#FC4C02"/>
  <!-- Story phone frame -->
  <rect x="156" y="96" width="200" height="320" rx="20" fill="#0A0A0B"/>
  <!-- Screen content lines (stat bars) -->
  <rect x="176" y="316" width="160" height="6" rx="3" fill="rgba(255,255,255,0.15)"/>
  <rect x="176" y="336" width="100" height="28" rx="4" fill="white"/>
  <rect x="176" y="372" width="72" height="16" rx="3" fill="rgba(255,255,255,0.5)"/>
  <rect x="256" y="372" width="72" height="16" rx="3" fill="rgba(255,255,255,0.5)"/>
  <!-- Route squiggle -->
  <path d="M176 250 Q200 220 230 240 Q260 260 290 230 Q310 215 336 220"
    fill="none" stroke="#FC4C02" stroke-width="6" stroke-linecap="round"/>
  <!-- Glow on route -->
  <path d="M176 250 Q200 220 230 240 Q260 260 290 230 Q310 215 336 220"
    fill="none" stroke="rgba(252,76,2,0.3)" stroke-width="14" stroke-linecap="round"/>
</svg>
